<svg width="60" height="61" viewBox="0 0 60 61" fill="none" xmlns="http://www.w3.org/2000/svg">
<circle cx="30" cy="30.791" r="30" fill="rgba(34, 10, 72, 1)"/>
<g clip-path="url(#clip0_489_1461)">
<path d="M30.5851 20.7811C30.0389 20.7791 29.5158 20.5576 29.1307 20.1654C28.7455 19.7731 28.5298 19.2421 28.5308 18.6889C28.5318 18.1356 28.7494 17.6054 29.136 17.2146C29.5226 16.8238 30.0464 16.6042 30.5926 16.6042C31.1388 16.6042 31.6627 16.8238 32.0493 17.2146C32.4358 17.6054 32.6535 18.1356 32.6545 18.6889C32.6555 19.2421 32.4397 19.7731 32.0546 20.1654C31.6694 20.5576 31.1463 20.7791 30.6001 20.7811" fill="#31D3FB"/>
<path d="M44.5972 22.7916C44.4026 22.1687 44.0694 21.5994 43.6234 21.1274C43.1813 20.677 42.6419 20.3367 42.0478 20.1334C41.4537 19.9301 40.8211 19.8694 40.1999 19.9561C39.764 20.0231 39.3422 20.1637 38.9522 20.3721V18.9839C38.9522 18.8504 38.9262 18.7182 38.8757 18.5949C38.8252 18.4716 38.7512 18.3596 38.658 18.2653C38.5647 18.171 38.454 18.0962 38.3321 18.0453C38.2103 17.9944 38.0798 17.9683 37.948 17.9685H34.159C33.8927 17.9685 33.6373 18.0757 33.449 18.2664C33.2607 18.4571 33.1549 18.7158 33.1549 18.9855C33.1549 19.2553 33.2607 19.5139 33.449 19.7047C33.6373 19.8954 33.8927 20.0025 34.159 20.0025H36.9437V27.9385C36.9437 29.6471 36.2736 31.2857 35.0808 32.4939C33.888 33.702 32.2702 34.3807 30.5834 34.3807C28.8965 34.3807 27.2788 33.702 26.086 32.4939C24.8932 31.2857 24.2231 29.6471 24.2231 27.9385V20.0025H27.0687C27.335 20.0025 27.5903 19.8954 27.7786 19.7047C27.967 19.5139 28.0727 19.2553 28.0727 18.9855C28.0727 18.7158 27.967 18.4571 27.7786 18.2664C27.5903 18.0757 27.335 17.9685 27.0687 17.9685H23.2339C23.1021 17.9683 22.9715 17.9944 22.8497 18.0453C22.7278 18.0962 22.6171 18.171 22.5238 18.2653C22.4306 18.3596 22.3566 18.4716 22.3061 18.5949C22.2556 18.7182 22.2296 18.8504 22.2296 18.9839V20.3554C21.8396 20.147 21.4178 20.0064 20.9819 19.9394C20.3594 19.8546 19.726 19.9177 19.1318 20.1236C18.5376 20.3296 17.9988 20.6727 17.5581 21.126C17.1061 21.5967 16.7675 22.1667 16.5685 22.7916C16.3641 23.4438 16.3072 24.1343 16.402 24.8118C16.4968 25.4893 16.7409 26.1366 17.1163 26.7055C17.7016 27.5189 18.4603 28.1882 19.336 28.6638L20.0818 29.0797C20.5503 29.3282 21.0031 29.6059 21.4376 29.9112C21.9618 30.2584 22.3702 30.758 22.6091 31.3444C22.8067 31.9609 22.6549 32.346 22.3656 32.5926C22.2176 32.6948 22.0462 32.757 21.8677 32.7732C21.6892 32.7894 21.5096 32.759 21.346 32.6851C20.907 32.4774 20.5561 32.1171 20.3571 31.6697C20.2287 31.4496 20.023 31.2866 19.7811 31.2135C19.5393 31.1403 19.279 31.1622 19.0524 31.2748C18.8258 31.3875 18.6495 31.5826 18.5587 31.8212C18.468 32.0597 18.4694 32.3242 18.5627 32.5618C18.9745 33.4528 19.6944 34.16 20.5863 34.5497C20.9685 34.7048 21.3768 34.7833 21.7885 34.7807C22.4627 34.7896 23.1189 34.5608 23.6449 34.1334C23.8807 33.9326 24.0814 33.6929 24.2385 33.4245C25.2401 34.6125 26.5458 35.4976 28.0121 35.9825V39.866H26.7489C26.6171 39.8658 26.4866 39.8919 26.3648 39.9428C26.2429 39.9937 26.1322 40.0684 26.0389 40.1628C25.9457 40.2571 25.8717 40.3691 25.8212 40.4924C25.7707 40.6157 25.7447 40.7479 25.7447 40.8814V42.6688H23.7648C23.4989 42.6688 23.244 42.7758 23.056 42.9662C22.868 43.1566 22.7623 43.4149 22.7623 43.6842V46.7666C22.7623 47.0359 22.868 47.2942 23.056 47.4846C23.244 47.675 23.4989 47.782 23.7648 47.782H37.3984C37.5302 47.7823 37.6607 47.7562 37.7826 47.7052C37.9044 47.6543 38.0151 47.5796 38.1084 47.4853C38.2017 47.3909 38.2757 47.2789 38.3262 47.1556C38.3767 47.0323 38.4026 46.9001 38.4026 46.7666V43.6842C38.4026 43.5507 38.3767 43.4185 38.3262 43.2952C38.2757 43.1719 38.2017 43.0599 38.1084 42.9656C38.0151 42.8713 37.9044 42.7965 37.7826 42.7456C37.6607 42.6947 37.5302 42.6686 37.3984 42.6688H35.4221V40.8984C35.4221 40.7649 35.3961 40.6328 35.3456 40.5094C35.2951 40.3861 35.2211 40.2741 35.1278 40.1798C35.0346 40.0855 34.9238 40.0107 34.802 39.9598C34.6802 39.9089 34.5496 39.8828 34.4178 39.883H33.1547V35.9981C34.6209 35.5132 35.9267 34.6281 36.9283 33.4401C37.0853 33.7085 37.2858 33.9482 37.5215 34.149C38.0478 34.5759 38.7041 34.8042 39.3783 34.7949C39.7899 34.7974 40.1981 34.7189 40.5802 34.5639C41.472 34.1742 42.1919 33.4669 42.6037 32.5759C42.7026 32.3371 42.7077 32.069 42.618 31.8266C42.5282 31.5841 42.3504 31.3855 42.1208 31.2714C41.8913 31.1574 41.6274 31.1365 41.3831 31.213C41.1388 31.2895 40.9327 31.4577 40.8068 31.6831C40.6078 32.1305 40.2569 32.4908 39.8179 32.6985C39.6543 32.7725 39.4747 32.8028 39.2962 32.7866C39.1177 32.7704 38.9463 32.7083 38.7983 32.606C38.6463 32.4419 38.5429 32.2379 38.4999 32.0173C38.4568 31.7966 38.4759 31.5681 38.5548 31.3578C38.8163 30.7855 39.22 30.2917 39.7263 29.9247C40.1557 29.625 40.6029 29.3523 41.0653 29.108L41.8107 28.6921C42.6899 28.2209 43.4501 27.5508 44.0322 26.7338C44.4147 26.1628 44.6642 25.5113 44.7621 24.8285C44.86 24.1456 44.8036 23.4492 44.5972 22.7916V22.7916ZM21.0438 27.3068L20.3439 26.9079C19.7295 26.5915 19.1937 26.1385 18.7764 25.5828C18.5718 25.2648 18.4396 24.9047 18.3895 24.5285C18.3393 24.1524 18.3724 23.7696 18.4864 23.4081C18.5869 23.0857 18.7583 22.7906 18.9877 22.545C19.2086 22.3219 19.4772 22.1531 19.7726 22.0516C20.068 21.9501 20.3825 21.9185 20.6919 21.9593C20.9983 22.0101 21.2893 22.1311 21.5426 22.313C21.796 22.495 22.005 22.7331 22.1537 23.0092L22.2296 23.118V28.0027C21.834 27.7383 21.4376 27.5226 21.0438 27.3068ZM30.0202 36.3832H31.1616V39.8812H30.0202V36.3832ZM36.3959 44.7047V45.7527H24.7709V44.7047H36.3959ZM33.4136 41.9V42.6706H27.7532V41.9H33.4136ZM42.391 25.5654C41.9779 26.1247 41.4411 26.5782 40.8236 26.8894L40.1237 27.2883C39.7281 27.5041 39.3324 27.7198 38.9368 27.9817V23.1307L39.0127 23.0219C39.1584 22.7427 39.3672 22.5024 39.622 22.3205C39.8769 22.1386 40.1705 22.0203 40.4791 21.9752C40.7876 21.9302 41.1023 21.9596 41.3975 22.0611C41.6927 22.1627 41.96 22.3334 42.1777 22.5595C42.4071 22.8051 42.5784 23.1002 42.6789 23.4226C42.7926 23.7805 42.827 24.1593 42.7796 24.5322C42.7323 24.9051 42.6044 25.2628 42.405 25.5799L42.391 25.5654Z" fill="#DCDCDC"/>
</g>
<defs>
<clipPath id="clip0_489_1461">
<rect width="29" height="33" fill="white" transform="translate(16 14.791)"/>
</clipPath>
</defs>
</svg>
